<?xml version="1.0" encoding="UTF-8" standalone="no"?><!DOCTYPE svg PUBLIC "-//W3C//DTD SVG 1.1//EN" "http://www.w3.org/Graphics/SVG/1.1/DTD/svg11.dtd"><svg width="100%" height="100%" viewBox="0 0 48 59" version="1.1" xmlns="http://www.w3.org/2000/svg" xmlns:xlink="http://www.w3.org/1999/xlink" xml:space="preserve" xmlns:serif="http://www.serif.com/" style="fill-rule:evenodd;clip-rule:evenodd;stroke-linejoin:round;stroke-miterlimit:1.41421;"><rect id="Artboard1" x="0" y="0" width="47.589" height="58.49" style="fill:none;"/><ellipse cx="38.524" cy="46.197" rx="2.325" ry="2.252" style="fill:#5eb772;"/><ellipse cx="7.359" cy="17.612" rx="1.987" ry="1.925" style="fill:#5eb772;"/><path d="M39.693,19.757l-0.747,-0.665l-7.639,8.592l0.747,0.664l7.639,-8.591Z" style="fill:#5eb772;"/><path d="M15.298,25.904l-0.792,-0.61l-8.232,10.686l0.793,0.61l8.231,-10.686Z" style="fill:#5eb772;"/><path d="M20.966,18.449l-0.792,-0.61l-5.743,7.455l0.792,0.61l5.743,-7.455Z" style="fill:#5eb772;"/><path d="M30.782,16.533l-0.021,-1l-9.408,0.198l0.021,1l9.408,-0.198Z" style="fill:#d0444b;"/><path d="M21.531,18.148l-1,-0.006l-0.051,9.411l1,0.005l0.051,-9.41Z" style="fill:#d0444b;"/><path d="M30.349,29.973l0.12,-0.993l-9.343,-1.126l-0.12,0.993l9.343,1.126Z" style="fill:#d0444b;"/><path d="M19.005,42.7l0.181,-0.984l-12.24,-2.245l-0.181,0.984l12.24,2.245Z" style="fill:#5eb772;"/><path d="M36.815,45.896l0.423,-0.906l-5.52,-2.577l-0.423,0.906l5.52,2.577Z" style="fill:#5eb772;"/><path d="M16.529,53.961l0.307,-0.952l-8.145,-2.627l-0.307,0.952l8.145,2.627Z" style="fill:#5eb772;"/><path d="M28.963,42.546l-0.006,-1l-8.559,0.054l0.007,1l8.558,-0.054Z" style="fill:#fecf18;"/><path d="M21.347,43.706l-0.995,-0.106l-0.902,8.511l0.995,0.105l0.902,-8.51Z" style="fill:#fecf18;"/><path d="M28.988,54.38l-0.037,-0.999l-8.553,0.322l0.038,0.999l8.552,-0.322Z" style="fill:#fecf18;"/><path d="M9.019,18.308l-0.604,0.798l10.957,8.287l0.603,-0.798l-10.956,-8.287Z" style="fill:#5eb772;"/><path d="M19.975,29.667l-0.516,-0.857l-12.492,7.527l0.516,0.857l12.492,-7.527Z" style="fill:#5eb772;"/><path d="M39.693,5.512l-0.711,-0.704l-8.087,8.171l0.71,0.703l8.088,-8.17Z" style="fill:#5eb772;"/><rect x="42" y="20.972" width="1" height="11.496" style="fill:#5eb772;"/><ellipse cx="19.347" cy="54.111" rx="2.99" ry="2.897" style="fill:#fecf18;"/><ellipse cx="29.665" cy="42.073" rx="2.143" ry="2.076" style="fill:#fecf18;"/><ellipse cx="29.53" cy="53.608" rx="2.008" ry="1.945" style="fill:#fecf18;"/><ellipse cx="20.719" cy="42.819" rx="2.049" ry="1.985" style="fill:#fecf18;"/><circle cx="42.366" cy="36.24" r="3.822" style="fill:#5eb772;"/><ellipse cx="42.246" cy="16.135" rx="4.993" ry="4.837" style="fill:#5eb772;"/><ellipse cx="41.011" cy="5.08" rx="3.028" ry="2.933" style="fill:#5eb772;"/><ellipse cx="15.835" cy="23.72" rx="2.325" ry="2.252" style="fill:#5eb772;"/><ellipse cx="30.171" cy="29.192" rx="2.649" ry="2.567" style="fill:#d0444b;"/><ellipse cx="29.634" cy="15.533" rx="2.864" ry="2.775" style="fill:#d0444b;"/><ellipse cx="21.353" cy="16.929" rx="2.084" ry="2.019" style="fill:#d0444b;"/><ellipse cx="21.353" cy="28.141" rx="2.084" ry="2.019" style="fill:#d0444b;"/><ellipse cx="4.998" cy="38.452" rx="2.998" ry="2.904" style="fill:#5eb772;"/><ellipse cx="8.384" cy="50.671" rx="1.68" ry="1.627" style="fill:#5eb772;"/></svg>